<?xml version="1.0" encoding="UTF-8" standalone="no"?>
<svg width="30px" height="30px" viewBox="0 0 30 30" version="1.1" xmlns="http://www.w3.org/2000/svg" xmlns:xlink="http://www.w3.org/1999/xlink">
    <!-- Generator: Sketch 41.2 (35397) - http://www.bohemiancoding.com/sketch -->
    <title>ProfileButton</title>
    <desc>Created with Sketch.</desc>
    <defs></defs>
    <g id="Web" stroke="none" stroke-width="1" fill="none" fill-rule="evenodd">
        <g id="Home" transform="translate(-952.000000, -24.000000)">
            <g id="ProfileButton" transform="translate(952.000000, 24.000000)">
                <g id="Group">
                    <path d="M15,2.5 C8.1,2.5 2.5,8.1 2.5,15 C2.5,21.9 8.1,27.5 15,27.5 C21.9,27.5 27.5,21.9 27.5,15 C27.5,8.1 21.9,2.5 15,2.5 Z M15,6.25 C17.075,6.25 18.75,7.925 18.75,10 C18.75,12.075 17.075,13.75 15,13.75 C12.925,13.75 11.25,12.075 11.25,10 C11.25,7.925 12.925,6.25 15,6.25 Z M15,24 C11.875,24 9.1125,22.4 7.5,19.975 C7.5375,17.4875 12.5,16.125 15,16.125 C17.4875,16.125 22.4625,17.4875 22.5,19.975 C20.8875,22.4 18.125,24 15,24 Z" id="Shape" fill="#000000"></path>
                    <polygon id="Shape" points="0 0 30 0 30 30 0 30"></polygon>
                </g>
            </g>
        </g>
    </g>
</svg>